<svg width="26" height="26" viewBox="0 0 26 26" fill="none" xmlns="http://www.w3.org/2000/svg">
<g clip-path="url(#clip0_340_1507)">
<path d="M24.5649 0H1.43508C1.05447 0 0.689454 0.151195 0.420325 0.420325C0.151195 0.689454 0 1.05447 0 1.43508L0 24.5649C0 24.9455 0.151195 25.3105 0.420325 25.5797C0.689454 25.8488 1.05447 26 1.43508 26H13.8887V15.9453H10.5117V12.0098H13.8887V9.11523C13.8887 5.75707 15.9397 3.92844 18.9363 3.92844C20.3709 3.92844 21.6044 4.03508 21.9629 4.08078V7.59027H19.8961C18.266 7.59027 17.9502 8.36469 17.9502 9.50168V12.0098H21.8471L21.3393 15.9453H17.9502V26H24.5639C24.7524 26.0001 24.9392 25.9631 25.1134 25.8911C25.2876 25.819 25.4459 25.7133 25.5793 25.58C25.7127 25.4468 25.8185 25.2885 25.8907 25.1143C25.9628 24.9402 26 24.7535 26 24.5649V1.43508C26 1.05447 25.8488 0.689454 25.5797 0.420325C25.3105 0.151195 24.9455 0 24.5649 0Z" fill="#4267B2"/>
<path d="M17.9512 25.9998V15.9451H21.3408L21.8486 12.0095H17.9512V9.50297C17.9512 8.36598 18.266 7.59156 19.8971 7.59156H21.9629V4.08105C21.6034 4.03332 20.3699 3.92871 18.9363 3.92871C15.9402 3.92871 13.8887 5.75684 13.8887 9.11551V12.01H10.5117V15.9451H13.8887V25.9998H17.9512Z" fill="white"/>
</g>
<defs>
<clipPath id="clip0_340_1507">
<rect width="26" height="26" fill="white"/>
</clipPath>
</defs>
</svg>
