<svg width="26" height="26" viewBox="0 0 26 26" fill="none" xmlns="http://www.w3.org/2000/svg">
<path d="M13.0114 6.37607C12.7828 6.37607 12.5567 6.38773 12.3339 6.41055C12.111 6.43338 11.8913 6.46719 11.6753 6.51157C11.4593 6.55597 11.2472 6.61095 11.0393 6.67584L10.4291 6.8999L9.84811 7.18042L9.29987 7.51402L8.78761 7.89718L8.31492 8.32655L7.88512 8.79883L7.50155 9.31051L7.16754 9.85824L6.88685 10.4385C6.80248 10.637 6.72742 10.8405 6.66246 11.0483C6.59749 11.256 6.54251 11.4681 6.49802 11.6838C6.45355 11.8995 6.41973 12.119 6.39682 12.3417C6.37393 12.5643 6.36243 12.7902 6.36243 13.0186C6.36243 13.247 6.37409 13.4729 6.39682 13.6955C6.41945 13.9164 6.45321 14.136 6.49802 14.3534C6.54251 14.57 6.59749 14.7812 6.66246 14.989C6.72742 15.1967 6.80239 15.4001 6.88685 15.5987L7.16754 16.179L7.50155 16.7266L7.88512 17.2384L8.31492 17.7107L8.78761 18.1401L9.29987 18.5233L9.84811 18.8568L10.4291 19.1373L11.0393 19.3614L11.6753 19.5257C11.893 19.5705 12.1128 19.6043 12.3339 19.6268C12.559 19.6498 12.7851 19.6613 13.0114 19.6611C13.2401 19.6611 13.4662 19.6496 13.689 19.6268C13.91 19.6043 14.1298 19.5705 14.3475 19.5257L14.9836 19.3614L15.5938 19.1373L16.1747 18.8568L16.723 18.5233L17.2353 18.1401L17.7081 17.7107L18.1379 17.2384L18.5214 16.7266L18.8554 16.179L19.1362 15.5987L19.3605 14.989C19.4255 14.7812 19.4805 14.5692 19.5249 14.3534L19.6261 13.6954C19.649 13.4728 19.6605 13.2469 19.6605 13.0185C19.6605 12.7901 19.649 12.5642 19.6261 12.3416C19.6035 12.1207 19.5697 11.9012 19.5249 11.6837C19.4805 11.4672 19.4255 11.256 19.3605 11.0482L19.1362 10.4385L18.8554 9.85815L18.5214 9.31042L18.1379 8.79874L17.7081 8.32646L17.2353 7.89709L16.723 7.51395L16.1747 7.18035L15.5938 6.89982L14.9836 6.67575L14.3475 6.5115L13.689 6.41046C13.4639 6.38748 13.2377 6.37605 13.0114 6.37607ZM13.0114 8.66882C13.1626 8.66882 13.3118 8.67631 13.4587 8.69113L13.8919 8.75669L14.3102 8.86329L14.7109 9.00882L15.0918 9.19124L15.45 9.40821L15.7848 9.65785L16.0935 9.93787L16.3738 10.2462L16.6237 10.5807L16.8409 10.9394L17.0233 11.3201C17.0781 11.4503 17.1267 11.5838 17.1691 11.7204C17.2114 11.8569 17.2469 11.9964 17.2757 12.1385C17.3044 12.2806 17.3257 12.4252 17.3412 12.572L17.3636 13.019C17.3636 13.17 17.3561 13.3191 17.3412 13.466C17.3264 13.613 17.3046 13.7576 17.2757 13.8996C17.2468 14.0416 17.2111 14.1811 17.1691 14.3177L17.0233 14.718L16.8409 15.0987L16.6237 15.4573L16.3738 15.7918L16.0935 16.1002L15.7848 16.3802L15.45 16.6299L15.0918 16.8468L14.7109 17.0293L14.3102 17.1748L13.8919 17.2814L13.4587 17.3469C13.3101 17.3618 13.1608 17.3692 13.0114 17.3692C12.8619 17.3692 12.7126 17.3618 12.5639 17.3469L12.1308 17.2814C11.9886 17.2526 11.849 17.2169 11.7123 17.1748L11.3117 17.0293L10.9308 16.8468L10.5726 16.6299L10.2378 16.3802L9.92907 16.1002L9.64879 15.7918L9.3989 15.4573L9.18168 15.0987L8.99926 14.718L8.8535 14.3177L8.74688 13.8996L8.68134 13.466C8.66642 13.3175 8.65897 13.1683 8.659 13.019C8.65897 12.8697 8.66642 12.7206 8.68134 12.572C8.69607 12.4252 8.71797 12.2805 8.74688 12.1385C8.7755 11.9975 8.8111 11.8579 8.85359 11.7204L8.99935 11.3201L9.18177 10.9395L9.39899 10.5808L9.64886 10.2463L9.92916 9.93796L10.2378 9.65792L10.5727 9.4083L10.9308 9.19131L11.3117 9.00889C11.4428 8.95384 11.5766 8.90527 11.7125 8.86338L12.1309 8.75676C12.2731 8.72795 12.4179 8.70596 12.5641 8.69122C12.7128 8.67633 12.862 8.6688 13.0114 8.66882Z" fill="url(#paint0_radial_340_1495)"/>
<path d="M19.9301 4.48633C19.8774 4.48633 19.8246 4.489 19.7721 4.49433C19.7196 4.49964 19.6674 4.50758 19.6156 4.51814C19.5639 4.5287 19.5126 4.54185 19.4623 4.55754C19.4117 4.57325 19.3622 4.59148 19.3135 4.61218C19.2649 4.6329 19.2174 4.65607 19.171 4.68156C19.1246 4.70702 19.0797 4.73479 19.0362 4.76478C18.9925 4.79479 18.9504 4.82698 18.9101 4.86123C18.8697 4.89545 18.8311 4.93167 18.7942 4.96977C18.7576 5.00788 18.7227 5.04784 18.6899 5.08946C18.657 5.13109 18.6263 5.17433 18.5978 5.21906C18.5692 5.26375 18.5431 5.30984 18.5191 5.35717C18.4952 5.40453 18.4736 5.45306 18.4544 5.5026C18.4353 5.55211 18.4187 5.60258 18.4044 5.65376C18.3903 5.70497 18.3788 5.75684 18.3699 5.8092C18.3609 5.86155 18.3546 5.91431 18.3508 5.9673C18.3481 6.00482 18.3468 6.04245 18.3468 6.08007C18.3468 6.13323 18.3493 6.18635 18.3547 6.23925C18.36 6.29212 18.3679 6.34468 18.3784 6.39675C18.3889 6.44882 18.4019 6.50033 18.4174 6.55109C18.4331 6.60186 18.4512 6.65182 18.4717 6.70077C18.4923 6.74974 18.5153 6.79764 18.5407 6.84429C18.566 6.89093 18.5936 6.93627 18.6234 6.98014C18.6532 7.02398 18.6852 7.06629 18.7191 7.10691C18.7532 7.14757 18.7892 7.1865 18.8271 7.22353C18.865 7.26055 18.9045 7.29563 18.9461 7.32865C18.9874 7.36169 19.0304 7.39262 19.0748 7.42135C19.1192 7.45008 19.1651 7.47654 19.212 7.50065C19.2591 7.52477 19.3074 7.54651 19.3565 7.56578C19.4058 7.58504 19.4558 7.6018 19.5067 7.61601C19.5576 7.6302 19.6091 7.64183 19.6611 7.65082C19.7131 7.65986 19.7656 7.66629 19.8181 7.67006C19.8555 7.67274 19.8929 7.67405 19.9303 7.67407C19.983 7.67407 20.0359 7.67144 20.0884 7.66615C20.1408 7.66084 20.1932 7.65289 20.2448 7.64233C20.2966 7.63179 20.3477 7.61862 20.3983 7.60293C20.4486 7.58722 20.4983 7.56899 20.5469 7.5483C20.5954 7.52759 20.6431 7.50446 20.6893 7.47898C20.7357 7.45351 20.7807 7.4257 20.8244 7.39569C20.8679 7.3657 20.91 7.33354 20.9504 7.29933C20.9907 7.26508 21.0293 7.22884 21.0661 7.19071C21.103 7.15259 21.1378 7.11263 21.1705 7.07102C21.2034 7.02938 21.2341 6.98614 21.2626 6.94141C21.2911 6.89671 21.3175 6.85058 21.3413 6.80323C21.3653 6.75586 21.387 6.70732 21.4061 6.6578C21.4253 6.60827 21.4419 6.55782 21.456 6.50662C21.4701 6.45543 21.4816 6.40356 21.4906 6.3512C21.4997 6.29885 21.506 6.24608 21.5096 6.1931C21.5123 6.15556 21.5137 6.11795 21.5137 6.08033C21.5137 6.02719 21.511 5.97409 21.5058 5.92122C21.5006 5.86835 21.4926 5.81579 21.4821 5.76372C21.4717 5.71165 21.4585 5.66014 21.443 5.60938C21.4273 5.55861 21.4092 5.50865 21.3886 5.4597C21.368 5.41074 21.3451 5.36284 21.3198 5.31618C21.2946 5.26954 21.2669 5.2242 21.2371 5.18033C21.2072 5.13645 21.1752 5.09413 21.1413 5.05347C21.1071 5.01283 21.0712 4.9739 21.0335 4.93687C20.9956 4.89985 20.9558 4.86477 20.9145 4.83175C20.8731 4.79873 20.8302 4.76781 20.7857 4.73912C20.7413 4.7104 20.6955 4.68393 20.6483 4.65982C20.6012 4.6357 20.553 4.61396 20.5039 4.5947C20.4548 4.57543 20.4046 4.55868 20.3537 4.54447C20.3029 4.53024 20.2513 4.51859 20.1993 4.50957C20.1473 4.50056 20.0949 4.49415 20.0422 4.49041C20.0048 4.48774 19.9675 4.48633 19.9301 4.48633Z" fill="url(#paint1_radial_340_1495)"/>
<path d="M11.7506 0.0236798C11.0274 0.0225135 10.3821 0.0255119 9.80235 0.0336746L8.24809 0.0753215C7.78764 0.0953119 7.38083 0.121381 7.01567 0.155115C6.83309 0.17194 6.66084 0.190765 6.49759 0.211505C6.34222 0.231086 6.1873 0.253887 6.03289 0.27989C5.88586 0.304879 5.74635 0.331865 5.61258 0.361184C5.47882 0.390504 5.35104 0.422156 5.22776 0.45614C5.10725 0.489371 4.98767 0.525925 4.86919 0.565755C4.75308 0.604903 4.6398 0.646384 4.52792 0.690696C4.3042 0.779322 4.08598 0.878772 3.86124 0.990219C3.68832 1.07601 3.52857 1.16289 3.37681 1.25484C3.22505 1.3468 3.08128 1.44392 2.94052 1.54971C2.79555 1.65917 2.65582 1.77542 2.52181 1.89805C2.3817 2.02565 2.23861 2.16599 2.08992 2.32284C1.9031 2.51883 1.74075 2.70157 1.59665 2.8809C1.5246 2.97053 1.45714 3.05916 1.39358 3.14829C1.33073 3.23611 1.27065 3.3259 1.21342 3.41748C1.15678 3.50828 1.10314 3.60074 1.05183 3.69586C0.99972 3.79262 0.950472 3.89089 0.904148 3.99054C0.80936 4.19412 0.720903 4.41335 0.632611 4.65807C0.567111 4.83897 0.508457 5.02231 0.456777 5.20763C0.404053 5.39705 0.357159 5.59521 0.315344 5.80951C0.273531 6.02383 0.237048 6.25431 0.20498 6.50918C0.170423 6.78858 0.142817 7.06878 0.122186 7.34954C0.098864 7.65822 0.0795399 7.9979 0.063714 8.37597L0.0262319 9.63305L0.00607468 11.1654L0.000244141 13.0176L0.0173194 15.7111L0.0706275 17.7518L0.111691 18.5488L0.163 19.2095C0.179448 19.3875 0.200027 19.565 0.224722 19.7421C0.24721 19.8994 0.271366 20.037 0.297354 20.1561C0.350085 20.3983 0.412438 20.6382 0.484265 20.8755C0.553038 21.1026 0.631687 21.3265 0.719985 21.5468C0.806778 21.7625 0.901733 21.9705 1.00502 22.1708C1.1083 22.371 1.21991 22.5635 1.33986 22.7484C1.4598 22.9331 1.58807 23.1104 1.72501 23.2801C1.86179 23.4498 2.00728 23.6121 2.16089 23.7669C2.31473 23.9218 2.47699 24.0691 2.648 24.2092C2.82101 24.351 3.00087 24.4842 3.1869 24.6083C3.35957 24.7236 3.53041 24.8295 3.7025 24.9264C3.87457 25.0236 4.04815 25.1115 4.22658 25.1916C4.40498 25.2716 4.5879 25.3437 4.77899 25.4085C4.97005 25.4733 5.16913 25.5309 5.37953 25.582C5.58993 25.6333 5.81265 25.6781 6.04838 25.7172C6.2841 25.7564 6.53606 25.79 6.80527 25.8189C7.07448 25.8478 7.36167 25.8716 7.67028 25.8917C7.97888 25.9117 8.30872 25.9276 8.66313 25.9404C9.21063 25.9603 10.0394 25.9718 10.9951 25.9763L14.0891 25.97L17.0188 25.929L18.1329 25.8976L18.8585 25.8604C19.0143 25.8476 19.1667 25.8326 19.3139 25.8151C19.461 25.7976 19.606 25.7775 19.7474 25.7546C19.8886 25.7319 20.0267 25.7064 20.1623 25.6781C20.2965 25.6501 20.4299 25.6188 20.5624 25.5845C20.6937 25.5511 20.8231 25.5132 20.9513 25.473C21.0793 25.4329 21.2063 25.3894 21.3323 25.3426C21.4591 25.2956 21.5845 25.2456 21.7089 25.1927C21.8341 25.1393 21.959 25.0824 22.0845 25.0219C22.2771 24.9291 22.4322 24.8517 22.5684 24.7762C22.6966 24.706 22.8199 24.6274 22.9378 24.5409C23.0541 24.4553 23.1696 24.3578 23.3029 24.2351C23.4361 24.1123 23.5873 23.9644 23.7741 23.7774C23.9386 23.613 24.0771 23.4702 24.1966 23.3404C24.3162 23.2106 24.4169 23.0938 24.5052 22.9811C24.5893 22.8742 24.6677 22.763 24.7401 22.6478C24.8107 22.5353 24.8757 22.4185 24.9418 22.289C25.0415 22.0942 25.1301 21.9137 25.2094 21.7394C25.2865 21.5717 25.3569 21.4007 25.4204 21.2274C25.4831 21.0553 25.5374 20.8803 25.5831 20.703C25.6301 20.5207 25.6705 20.328 25.7055 20.1168C25.7404 19.9055 25.77 19.6757 25.7956 19.4189C25.8213 19.1624 25.8431 18.8785 25.8623 18.5598L25.9132 17.4897L25.9567 16.1589L25.9879 14.6763L25.9998 13.1261L25.972 10.0812L25.9348 8.71747L25.8841 7.54653L25.8207 6.63362C25.7978 6.37958 25.7729 6.17951 25.7467 6.04424C25.7175 5.89477 25.685 5.74601 25.649 5.59803C25.614 5.45405 25.5755 5.31095 25.5336 5.16883C25.4928 5.03036 25.4484 4.89296 25.4006 4.75677C25.3533 4.62225 25.3031 4.49055 25.2505 4.36171C25.1982 4.23285 25.1413 4.107 25.0823 3.98381C25.023 3.86061 24.9611 3.74042 24.8961 3.62297C24.8309 3.50553 24.7632 3.39101 24.6923 3.2793C24.6215 3.16761 24.5476 3.05873 24.4707 2.95278C24.3943 2.84717 24.3145 2.74399 24.2317 2.64334C24.1491 2.54328 24.0636 2.44583 23.9749 2.35115C23.8864 2.25661 23.7949 2.16489 23.7006 2.07613C23.6062 1.98733 23.5091 1.90137 23.4089 1.81824C23.3081 1.73484 23.205 1.65459 23.0992 1.57761C22.9925 1.49984 22.8835 1.42534 22.7721 1.35422C22.6592 1.28208 22.5444 1.2133 22.4274 1.14798C22.3086 1.08156 22.1876 1.01856 22.0652 0.959068C21.8617 0.860198 21.6736 0.772491 21.489 0.694695C21.3074 0.617486 21.1223 0.548913 20.9344 0.489209C20.7453 0.429652 20.5485 0.378595 20.332 0.334532C20.1154 0.290469 19.8792 0.253737 19.612 0.222501C19.3447 0.191267 19.0463 0.166029 18.7049 0.145039C18.3636 0.124049 17.9796 0.107555 17.5413 0.0942284L16.0515 0.0609114L14.1659 0.038672L11.7514 0.023845L11.7506 0.0236798ZM13.0046 2.31443L16.4865 2.33425L17.8001 2.35957C18.1617 2.36973 18.4378 2.38165 18.5996 2.39539C18.8105 2.41314 19.0111 2.43536 19.2032 2.46203C19.3874 2.48747 19.5708 2.5191 19.7528 2.55689C19.9278 2.59355 20.0946 2.63518 20.2544 2.68216C20.414 2.72914 20.5666 2.78179 20.7128 2.84001C20.8592 2.89824 20.9992 2.96228 21.1339 3.03242C21.2675 3.10203 21.3973 3.17862 21.5228 3.26189C21.6477 3.34477 21.7682 3.43407 21.8852 3.53027C22.002 3.62647 22.1154 3.72959 22.2261 3.83987C22.3431 3.95624 22.4508 4.07475 22.5501 4.19703C22.6491 4.31856 22.7408 4.44592 22.8244 4.57843C22.9091 4.71284 22.9853 4.85235 23.0528 4.99615C23.1218 5.14276 23.1837 5.29767 23.2393 5.46234C23.2951 5.62703 23.3446 5.80202 23.3885 5.98902C23.4345 6.18727 23.473 6.38718 23.504 6.58832C23.5372 6.80156 23.5658 7.02895 23.59 7.27241C23.614 7.51587 23.634 7.77551 23.6505 8.0533C23.6636 8.2761 23.6752 8.57014 23.6849 8.91738L23.7093 10.1014L23.7279 13.0017L23.7068 15.8992L23.6813 17.0798L23.6461 17.9385C23.6219 18.3406 23.5963 18.6786 23.5656 18.9728C23.5502 19.1199 23.5335 19.2561 23.515 19.3837C23.4977 19.5043 23.4771 19.6244 23.4535 19.7439C23.4318 19.853 23.4067 19.9613 23.378 20.0689C23.3507 20.1713 23.3199 20.273 23.2857 20.3735C23.2512 20.4745 23.2139 20.5743 23.1734 20.6729C23.1306 20.7772 23.0855 20.8803 23.038 20.9825C22.9958 21.0737 22.9513 21.1625 22.9044 21.2489C22.858 21.3344 22.8085 21.4182 22.7565 21.5004C22.7049 21.5818 22.6507 21.6609 22.594 21.7374C22.5377 21.8136 22.4786 21.8878 22.4169 21.9599C22.3555 22.0317 22.2914 22.1011 22.2248 22.1682C22.1582 22.2352 22.089 22.2999 22.0173 22.3623C21.9458 22.4248 21.8714 22.4849 21.7945 22.5427C21.7178 22.6005 21.6382 22.6559 21.556 22.709C21.4737 22.7623 21.389 22.8132 21.3014 22.8619C21.2139 22.9105 21.1236 22.9569 21.0308 23.0011C20.9362 23.0461 20.8405 23.0882 20.7433 23.1274C20.6431 23.1678 20.5418 23.2054 20.4395 23.2402C20.2311 23.3112 20.0115 23.3735 19.7802 23.4271C19.5394 23.4829 19.2962 23.5284 19.0513 23.5636C18.9571 23.5773 18.7408 23.5903 18.431 23.6022L17.2502 23.6351L13.9027 23.6786L10.3988 23.684L9.0228 23.6694L8.1293 23.6416L7.47046 23.5952C7.26589 23.578 7.07563 23.5589 6.89739 23.537C6.71915 23.5154 6.55314 23.4912 6.39696 23.4637C6.24896 23.4383 6.10186 23.4076 5.95592 23.3722C5.82285 23.3399 5.69113 23.3021 5.56112 23.2592C5.43576 23.2175 5.31589 23.1716 5.19928 23.1212C5.08266 23.0708 4.96938 23.0156 4.85718 22.9553C4.74499 22.895 4.63396 22.8296 4.52168 22.7581C4.43698 22.7043 4.3551 22.6498 4.2763 22.5922C4.19751 22.5344 4.12137 22.4768 4.04808 22.4165C3.97477 22.3562 3.90439 22.2941 3.8365 22.2302C3.76907 22.1664 3.70396 22.1004 3.64127 22.0321C3.5788 21.9639 3.51907 21.8938 3.46176 21.8212C3.40424 21.7483 3.34942 21.6732 3.29744 21.5962C3.24466 21.5181 3.19474 21.4381 3.14776 21.3565C3.10027 21.274 3.05513 21.1887 3.01223 21.1006C2.96861 21.0111 2.92791 20.9201 2.89021 20.8278C2.8519 20.7337 2.81557 20.6368 2.78143 20.5367C2.71312 20.3363 2.65316 20.1231 2.60102 19.8958C2.54887 19.6685 2.50438 19.4269 2.46674 19.1694C2.42909 18.9121 2.39878 18.6391 2.37462 18.3491C2.3568 18.1355 2.34264 17.8028 2.33181 17.3829L2.30915 15.8899L2.31747 12.0838L2.38303 8.44685L2.43301 7.16547L2.46132 6.7419C2.47116 6.6288 2.48133 6.54501 2.49173 6.49469C2.52605 6.32919 2.56061 6.17517 2.59634 6.031C2.62972 5.89497 2.66687 5.75991 2.70771 5.62594C2.74653 5.4995 2.78742 5.38105 2.83115 5.26886C2.87331 5.16016 2.92031 5.05342 2.972 4.94893C3.02247 4.84731 3.07671 4.75001 3.13559 4.65531C3.19448 4.56061 3.25804 4.46874 3.32734 4.37736C3.39663 4.28599 3.47126 4.19578 3.55247 4.10433C3.63369 4.01288 3.7214 3.9205 3.81652 3.8253C3.92738 3.7138 4.04281 3.60695 4.16252 3.50503C4.27556 3.40886 4.39343 3.31853 4.51568 3.23441C4.63588 3.1511 4.75916 3.07699 4.88752 3.00884C5.01588 2.94072 5.14931 2.87915 5.28965 2.82377C5.43 2.76838 5.57744 2.71882 5.7336 2.67384C5.89769 2.62782 6.06358 2.58855 6.23087 2.55614C6.40679 2.52167 6.59362 2.49159 6.7931 2.46535C6.9926 2.43912 7.20482 2.41646 7.43173 2.3968C7.58998 2.38315 7.86268 2.37098 8.22177 2.36074L9.52864 2.33492L13.0052 2.31367L13.0046 2.31443Z" fill="url(#paint2_radial_340_1495)"/>
<defs>
<radialGradient id="paint0_radial_340_1495" cx="0" cy="0" r="1" gradientUnits="userSpaceOnUse" gradientTransform="translate(4.14239 27.8681) rotate(-9.53101) scale(54.9499 33.3542)">
<stop stop-color="#FED576"/>
<stop offset="0.263" stop-color="#F47133"/>
<stop offset="0.609" stop-color="#BC3081"/>
<stop offset="1" stop-color="#4C63D2"/>
</radialGradient>
<radialGradient id="paint1_radial_340_1495" cx="0" cy="0" r="1" gradientUnits="userSpaceOnUse" gradientTransform="translate(4.14242 27.868) rotate(-9.53102) scale(54.9499 33.3542)">
<stop stop-color="#FED576"/>
<stop offset="0.263" stop-color="#F47133"/>
<stop offset="0.609" stop-color="#BC3081"/>
<stop offset="1" stop-color="#4C63D2"/>
</radialGradient>
<radialGradient id="paint2_radial_340_1495" cx="0" cy="0" r="1" gradientUnits="userSpaceOnUse" gradientTransform="translate(4.14244 27.8682) rotate(-9.53101) scale(54.9499 33.3542)">
<stop stop-color="#FED576"/>
<stop offset="0.263" stop-color="#F47133"/>
<stop offset="0.609" stop-color="#BC3081"/>
<stop offset="1" stop-color="#4C63D2"/>
</radialGradient>
</defs>
</svg>
