<svg width="27" height="26" viewBox="0 0 27 26" fill="none" xmlns="http://www.w3.org/2000/svg">
<mask id="mask0_340_1499" style="mask-type:luminance" maskUnits="userSpaceOnUse" x="0" y="0" width="31" height="26">
<path d="M30.935 0H0V26H30.935V0Z" fill="white"/>
</mask>
<g mask="url(#mask0_340_1499)">
<path d="M22.2871 21.9716H18.4112V15.988C18.4112 14.5611 18.3854 12.7244 16.3955 12.7244C14.3769 12.7244 14.068 14.279 14.068 15.8841V21.9712H10.1923V9.66648H13.913V11.348H13.9651C14.3375 10.7204 14.8755 10.2041 15.522 9.85408C16.1684 9.50405 16.8991 9.33345 17.6362 9.36042C21.5644 9.36042 22.2887 11.9076 22.2887 15.2214L22.2871 21.9716ZM5.81918 7.98452C5.37434 7.98461 4.93945 7.85464 4.56954 7.61105C4.19962 7.36749 3.9113 7.02125 3.74099 6.61612C3.5707 6.21099 3.52606 5.76518 3.61277 5.33506C3.69947 4.90494 3.91361 4.50981 4.22812 4.19967C4.5426 3.88952 4.94332 3.67828 5.3796 3.59265C5.81588 3.50701 6.2681 3.55085 6.6791 3.71858C7.09011 3.88634 7.44143 4.17046 7.68863 4.53506C7.93584 4.89963 8.06784 5.32831 8.06791 5.76684C8.06797 6.05802 8.00984 6.34635 7.89685 6.61538C7.78387 6.88443 7.61826 7.12888 7.40945 7.3348C7.20064 7.54075 6.95271 7.70411 6.67984 7.81559C6.40698 7.92706 6.11454 7.98446 5.81918 7.98452ZM7.75703 21.9716H3.87727V9.66648H7.75703V21.9716ZM24.2193 0.00175686H1.92971C1.42381 -0.00387145 0.9363 0.188737 0.57437 0.537258C0.212438 0.885779 0.00568608 1.3617 -0.000488281 1.86043V23.9254C0.00547476 24.4244 0.212104 24.9005 0.574024 25.2496C0.935943 25.5984 1.42355 25.7914 1.92971 25.786H24.2193C24.7264 25.7923 25.2155 25.5998 25.5788 25.251C25.942 24.9022 26.1501 24.4253 26.1572 23.9254V1.85884C26.1499 1.35912 25.9417 0.882655 25.5785 0.534143C25.2151 0.185631 24.7263 -0.0064266 24.2193 0.000164196" fill="#0A66C2"/>
</g>
</svg>
