<svg width="21" height="21" viewBox="0 0 21 21" fill="none" xmlns="http://www.w3.org/2000/svg">
<path d="M4.55703 15.8988C5.40703 15.2488 6.35703 14.7363 7.40703 14.3613C8.45703 13.9863 9.55703 13.7988 10.707 13.7988C11.857 13.7988 12.957 13.9863 14.007 14.3613C15.057 14.7363 16.007 15.2488 16.857 15.8988C17.4404 15.2155 17.8945 14.4405 18.2195 13.5738C18.5445 12.7072 18.707 11.7822 18.707 10.7988C18.707 8.58216 17.9279 6.69466 16.3695 5.13633C14.8112 3.57799 12.9237 2.79883 10.707 2.79883C8.49036 2.79883 6.60286 3.57799 5.04453 5.13633C3.4862 6.69466 2.70703 8.58216 2.70703 10.7988C2.70703 11.7822 2.86953 12.7072 3.19453 13.5738C3.51953 14.4405 3.9737 15.2155 4.55703 15.8988ZM10.707 11.7988C9.7237 11.7988 8.89453 11.4613 8.21953 10.7863C7.54453 10.1113 7.20703 9.28216 7.20703 8.29883C7.20703 7.31549 7.54453 6.48633 8.21953 5.81133C8.89453 5.13633 9.7237 4.79883 10.707 4.79883C11.6904 4.79883 12.5195 5.13633 13.1945 5.81133C13.8695 6.48633 14.207 7.31549 14.207 8.29883C14.207 9.28216 13.8695 10.1113 13.1945 10.7863C12.5195 11.4613 11.6904 11.7988 10.707 11.7988ZM10.707 20.7988C9.3237 20.7988 8.0237 20.5363 6.80703 20.0113C5.59036 19.4863 4.53203 18.7738 3.63203 17.8738C2.73203 16.9738 2.01953 15.9155 1.49453 14.6988C0.969531 13.4822 0.707031 12.1822 0.707031 10.7988C0.707031 9.41549 0.969531 8.11549 1.49453 6.89883C2.01953 5.68216 2.73203 4.62383 3.63203 3.72383C4.53203 2.82383 5.59036 2.11133 6.80703 1.58633C8.0237 1.06133 9.3237 0.798828 10.707 0.798828C12.0904 0.798828 13.3904 1.06133 14.607 1.58633C15.8237 2.11133 16.882 2.82383 17.782 3.72383C18.682 4.62383 19.3945 5.68216 19.9195 6.89883C20.4445 8.11549 20.707 9.41549 20.707 10.7988C20.707 12.1822 20.4445 13.4822 19.9195 14.6988C19.3945 15.9155 18.682 16.9738 17.782 17.8738C16.882 18.7738 15.8237 19.4863 14.607 20.0113C13.3904 20.5363 12.0904 20.7988 10.707 20.7988Z" fill="#FFF"/>
</svg>
