<svg width="26" height="26" viewBox="0 0 26 26" fill="none" xmlns="http://www.w3.org/2000/svg">
<g clip-path="url(#clip0_340_1510)">
<path d="M22.1 0H3.9C1.74609 0 0 1.74609 0 3.9V22.1C0 24.2539 1.74609 26 3.9 26H22.1C24.2539 26 26 24.2539 26 22.1V3.9C26 1.74609 24.2539 0 22.1 0Z" fill="#1EB8EB"/>
<path d="M21.2266 9.39481C20.2617 14.93 14.7266 19.6526 13.0508 20.719C11.4258 21.7854 9.90234 20.262 9.34375 19.1956C8.73438 17.8753 6.85547 10.8675 6.34766 10.2581C5.89062 9.64872 4.36719 10.8675 4.36719 10.8675L3.70703 9.90262C3.70703 9.90262 6.70312 6.29715 8.98828 5.8909C11.375 5.38309 11.375 9.59794 11.9844 11.8831C12.543 14.1682 12.8984 15.4378 13.3555 15.4378C13.8633 15.4378 14.8281 14.219 15.8438 12.2386C16.9102 10.3597 15.793 8.63309 13.7617 9.85184C14.625 5.02762 22.1914 3.85965 21.2266 9.39481Z" fill="white"/>
</g>
<defs>
<clipPath id="clip0_340_1510">
<rect width="26" height="26" fill="white"/>
</clipPath>
</defs>
</svg>
